<svg width="1037" height="693" xmlns="http://www.w3.org/2000/svg" xmlns:xlink="http://www.w3.org/1999/xlink" xml:space="preserve" overflow="hidden"><g transform="translate(-104 -13)"><g><g><g><g><path d="M1235.71 861.08C1269.67 861.08 1297.2 888.61 1297.2 922.57L1297.2 1167.08C1297.2 1201.04 1269.67 1228.57 1235.71 1228.57L1045.25 1228.57C1011.29 1228.57 983.761 1201.04 983.761 1167.08L983.761 922.57C983.761 888.61 1011.29 861.08 1045.25 861.08Z" stroke="#000000" stroke-width="1.89135" stroke-linecap="butt" stroke-linejoin="miter" stroke-miterlimit="4" stroke-opacity="1" fill="#A0D9D3" fill-rule="nonzero" fill-opacity="1" transform="matrix(1.00172 0 0 1 -518.038 -554.625)"/><path d="M1562.14 861.08C1596.1 861.08 1623.63 888.61 1623.63 922.57L1623.63 1167.08C1623.63 1201.04 1596.1 1228.57 1562.14 1228.57L1371.68 1228.57C1337.72 1228.57 1310.19 1201.04 1310.19 1167.08L1310.19 922.57C1310.19 888.61 1337.72 861.08 1371.68 861.08Z" stroke="#000000" stroke-width="1.89135" stroke-linecap="butt" stroke-linejoin="miter" stroke-miterlimit="4" stroke-opacity="1" fill="#A0D9D3" fill-rule="nonzero" fill-opacity="1" transform="matrix(1.00172 0 0 1 -518.038 -554.625)"/><path d="M1603.42 569.57C1631.54 569.57 1654.33 592.364 1654.33 620.481L1654.33 1208.77C1654.33 1236.89 1631.54 1259.68 1603.42 1259.68L674.728 1259.68C646.611 1259.68 623.818 1236.89 623.818 1208.77L623.818 620.481C623.818 592.364 646.611 569.57 674.728 569.57Z" stroke="#000000" stroke-width="1.89135" stroke-linecap="butt" stroke-linejoin="miter" stroke-miterlimit="4" stroke-opacity="1" fill="#C6CDCF" fill-rule="nonzero" fill-opacity="1" transform="matrix(1.00172 0 0 1 -518.038 -554.625)"/><path d="M1597.17 815.166C1619.45 815.166 1637.5 833.224 1637.5 855.498L1637.5 1201.5C1637.5 1223.78 1619.45 1241.84 1597.17 1241.84L682.591 1241.84C660.317 1241.84 642.26 1223.78 642.26 1201.5L642.26 855.498C642.26 833.223 660.317 815.166 682.591 815.166Z" stroke="#000000" stroke-width="1.89135" stroke-linecap="butt" stroke-linejoin="miter" stroke-miterlimit="4" stroke-opacity="1" fill="#D18362" fill-rule="nonzero" fill-opacity="1" transform="matrix(1.00172 0 0 1 -518.038 -554.625)"/><path d="M909.274 861.08C943.234 861.08 970.763 888.61 970.763 922.57L970.763 1167.08C970.763 1201.04 943.234 1228.57 909.274 1228.57L718.815 1228.57C684.855 1228.57 657.326 1201.04 657.326 1167.08L657.326 922.57C657.326 888.61 684.855 861.08 718.815 861.08Z" stroke="#000000" stroke-width="1.89135" stroke-linecap="butt" stroke-linejoin="miter" stroke-miterlimit="4" stroke-opacity="1" fill="#A0D9D3" fill-rule="nonzero" fill-opacity="1" transform="matrix(1.00172 0 0 1 -518.038 -554.625)"/><path d="M1235.71 861.08C1269.67 861.08 1297.2 888.61 1297.2 922.57L1297.2 1172.14C1297.2 1206.1 1269.67 1233.63 1235.71 1233.63L1045.25 1233.63C1011.29 1233.63 983.761 1206.1 983.761 1172.14L983.761 922.57C983.761 888.61 1011.29 861.08 1045.25 861.08Z" stroke="#000000" stroke-width="1.89135" stroke-linecap="butt" stroke-linejoin="miter" stroke-miterlimit="4" stroke-opacity="1" fill="#A0D9D3" fill-rule="nonzero" fill-opacity="1" transform="matrix(1.00172 0 0 1 -518.038 -554.625)"/><path d="M10.6147-19.5117 8.10416-19.5117 0.792798 0 2.86287 0 5.02106-5.72576 13.2133-5.72576 15.3274 0 17.9261 0ZM12.5967-7.31136 5.63768-7.31136 7.44348-12.3764C8.01607-14.0502 8.89696-16.4285 9.11719-17.4856 9.20525-17.0892 9.38143-16.3845 10.0421-14.5346Z" fill="#000000" fill-rule="nonzero" fill-opacity="1" transform="matrix(1.00172 0 0 1 135.677 51.553)"/><path d="M4.40443-6.03406C4.40443-8.80887 6.43047-10.8349 9.20525-10.923L9.20525-12.7729C6.69474-12.7729 5.15317-11.3634 4.27229-10.0861L4.27229-12.6407 2.29031-12.6407 2.29031 0 4.40443 0Z" fill="#000000" fill-rule="nonzero" fill-opacity="1" transform="matrix(1.00172 0 0 1 154.432 51.553)"/><path d="M4.93297-10.8349 8.89696-10.8349 8.89696-12.4646 4.93297-12.4646 4.93297-16.0321 2.99502-16.0321 2.99502-12.4646 0.528532-12.4646 0.528532-10.8349 2.90693-10.8349 2.90693-3.34737C2.90693-1.67369 3.30334 0.30831 5.24129 0.30831 7.17924 0.30831 8.63269-0.396399 9.3374-0.748754L8.89696-2.42244C8.14819-1.80582 7.2673-1.49751 6.34239-1.49751 5.32935-1.49751 4.93297-2.33435 4.93297-3.83187Z" fill="#000000" fill-rule="nonzero" fill-opacity="1" transform="matrix(1.00172 0 0 1 164.044 51.553)"/><path d="M4.58061-19.1152 2.07008-19.1152 2.07008-16.6047 4.58061-16.6047ZM4.40443-12.4646 2.29031-12.4646 2.29031 0 4.40443 0Z" fill="#000000" fill-rule="nonzero" fill-opacity="1" transform="matrix(1.00172 0 0 1 174.204 51.553)"/><path d="M12.8609-19.5117 10.5266-19.5117 10.5266-17.1773 12.8609-17.1773ZM12.7288-12.4646 10.6147-12.4646 10.6147 0 12.7288 0ZM4.93297-10.8349 8.28034-10.8349 8.28034-12.4646 4.84488-12.4646 4.84488-15.856C4.84488-17.6618 5.85788-18.1022 6.56259-18.1022 7.17924-18.1022 7.79584-17.882 8.28034-17.5737L8.28034-19.5117C8.10416-19.5557 7.39945-19.82 6.56259-19.82 4.49252-19.82 2.81884-17.8379 2.81884-15.0191L2.81884-12.4646 0.748754-12.4646 0.748754-10.8349 2.81884-10.8349 2.81884 0 4.93297 0Z" fill="#000000" fill-rule="nonzero" fill-opacity="1" transform="matrix(1.00172 0 0 1 180.924 51.553)"/><path d="M11.5396-11.7599C9.86593-12.6848 8.89696-12.949 7.17924-12.949 3.30334-12.949 1.01302-9.55761 1.01302-6.2543 1.01302-2.77479 3.56758 0.30831 7.09113 0.30831 8.58866 0.30831 10.1302-0.0880887 11.6717-1.14515L11.4956-2.99502C10.0421-1.89391 8.5446-1.49751 7.09113-1.49751 4.75679-1.49751 3.21522-3.52355 3.21522-6.2543 3.21522-8.45651 4.22826-11.1432 7.22327-11.1432 8.67672-11.1432 9.64573-10.923 11.1873-9.90996Z" fill="#000000" fill-rule="nonzero" fill-opacity="1" transform="matrix(1.00172 0 0 1 196.006 51.553)"/><path d="M4.58061-19.1152 2.07008-19.1152 2.07008-16.6047 4.58061-16.6047ZM4.40443-12.4646 2.29031-12.4646 2.29031 0 4.40443 0Z" fill="#000000" fill-rule="nonzero" fill-opacity="1" transform="matrix(1.00172 0 0 1 208.506 51.553)"/><path d="M11.2313-8.10416C11.2313-10.967 9.16122-12.949 6.56259-12.949 4.75679-12.949 3.47952-12.5086 2.15817-11.7599L2.33435-9.90996C3.78781-10.923 5.19723-11.2754 6.56259-11.2754 7.88395-11.2754 9.02908-10.1743 9.02908-8.10416L9.02908-6.87092C4.80082-6.82689 1.23324-5.63768 1.23324-3.17119 1.23324-1.982 1.982 0.30831 4.44846 0.30831 4.84488 0.30831 7.48754 0.264266 9.11719-1.01302L9.11719 0 11.2313 0ZM9.02908-3.69973C9.02908-3.17119 9.02908-2.46648 8.06013-1.93795 7.2673-1.45346 6.16621-1.40942 5.85788-1.40942 4.53658-1.40942 3.25928-2.07008 3.25928-3.21522 3.25928-5.19723 7.79584-5.37341 9.02908-5.4615Z" fill="#000000" fill-rule="nonzero" fill-opacity="1" transform="matrix(1.00172 0 0 1 215.227 51.553)"/><path d="M4.40443-19.5117 2.29031-19.5117 2.29031 0 4.40443 0Z" fill="#000000" fill-rule="nonzero" fill-opacity="1" transform="matrix(1.00172 0 0 1 228.746 51.553)"/><path d="M4.58061-19.1152 2.07008-19.1152 2.07008-16.6047 4.58061-16.6047ZM4.40443-12.4646 2.29031-12.4646 2.29031 0 4.40443 0Z" fill="#000000" fill-rule="nonzero" fill-opacity="1" transform="matrix(1.00172 0 0 1 244.836 51.553)"/><path d="M12.2443-8.36843C12.2443-10.2183 11.8039-12.7729 8.36843-12.7729 5.85788-12.7729 4.44846-10.879 4.31635-10.6587L4.31635-12.6407 2.29031-12.6407 2.29031 0 4.44846 0 4.44846-6.87092C4.44846-8.72078 5.15317-11.0551 7.31136-11.0551 9.99808-11.0551 10.0421-9.07314 10.0421-8.19225L10.0421 0 12.2443 0Z" fill="#000000" fill-rule="nonzero" fill-opacity="1" transform="matrix(1.00172 0 0 1 251.556 51.553)"/><path d="M4.93297-10.8349 8.89696-10.8349 8.89696-12.4646 4.93297-12.4646 4.93297-16.0321 2.99502-16.0321 2.99502-12.4646 0.528532-12.4646 0.528532-10.8349 2.90693-10.8349 2.90693-3.34737C2.90693-1.67369 3.30334 0.30831 5.24129 0.30831 7.17924 0.30831 8.63269-0.396399 9.3374-0.748754L8.89696-2.42244C8.14819-1.80582 7.2673-1.49751 6.34239-1.49751 5.32935-1.49751 4.93297-2.33435 4.93297-3.83187Z" fill="#000000" fill-rule="nonzero" fill-opacity="1" transform="matrix(1.00172 0 0 1 266.092 51.553)"/><path d="M11.6277-6.16621C11.6277-7.09113 11.5837-9.20525 10.5266-10.923 9.3374-12.6407 7.66372-12.949 6.65071-12.949 3.52355-12.949 0.968976-9.95402 0.968976-6.34239 0.968976-2.64266 3.69973 0.30831 7.0471 0.30831 8.80887 0.30831 10.4385-0.352355 11.5396-1.14515L11.3634-2.99502C9.60167-1.49751 7.70777-1.40942 7.09113-1.40942 4.84488-1.40942 3.03905-3.3914 2.95099-6.16621ZM3.0831-7.70777C3.52355-9.8219 5.02106-11.2313 6.65071-11.2313 8.10416-11.2313 9.64573-10.3064 10.0421-7.70777Z" fill="#000000" fill-rule="nonzero" fill-opacity="1" transform="matrix(1.00172 0 0 1 276.249 51.553)"/><path d="M4.40443-19.5117 2.29031-19.5117 2.29031 0 4.40443 0Z" fill="#000000" fill-rule="nonzero" fill-opacity="1" transform="matrix(1.00172 0 0 1 288.75 51.553)"/><path d="M4.40443-19.5117 2.29031-19.5117 2.29031 0 4.40443 0Z" fill="#000000" fill-rule="nonzero" fill-opacity="1" transform="matrix(1.00172 0 0 1 295.473 51.553)"/><path d="M4.58061-19.1152 2.07008-19.1152 2.07008-16.6047 4.58061-16.6047ZM4.40443-12.4646 2.29031-12.4646 2.29031 0 4.40443 0Z" fill="#000000" fill-rule="nonzero" fill-opacity="1" transform="matrix(1.00172 0 0 1 302.193 51.553)"/><path d="M9.90996-10.967C10.5266-10.967 11.2754-11.0992 11.9801-11.0992 12.4646-11.0992 13.5657-11.0111 13.6097-11.0111L13.3014-12.7729C11.3634-12.7729 9.73379-12.2443 8.89696-11.892 8.28034-12.3764 7.35542-12.7729 6.21024-12.7729 3.78781-12.7729 1.76177-10.7468 1.76177-8.19225 1.76177-7.17924 2.11413-6.16621 2.68671-5.41747 1.84986-4.27229 1.84986-3.17119 1.84986-3.03905 1.84986-2.29031 2.11413-1.49751 2.59862-0.880887 1.14515-0.0440443 0.792798 1.27729 0.792798 1.982 0.792798 4.09611 3.56758 5.76982 7.00307 5.76982 10.4385 5.76982 13.2133 4.14017 13.2133 1.982 13.2133-1.93795 8.5446-1.93795 7.44348-1.93795L4.977-1.93795C4.62464-1.93795 3.34737-1.93795 3.34737-3.43546 3.34737-3.74376 3.43546-4.18423 3.65569-4.44846 4.22826-4.00805 5.15317-3.61164 6.21024-3.61164 8.72078-3.61164 10.7028-5.72576 10.7028-8.19225 10.7028-9.55761 10.0861-10.6147 9.77784-11.0111ZM6.21024-5.24129C5.15317-5.24129 3.69973-5.85788 3.69973-8.19225 3.69973-10.5266 5.15317-11.1873 6.21024-11.1873 7.39945-11.1873 8.72078-10.3945 8.72078-8.19225 8.72078-6.03406 7.39945-5.24129 6.21024-5.24129ZM7.48754 0.0880887C8.10416 0.0880887 11.2754 0.0880887 11.2754 2.02604 11.2754 3.25928 9.3374 4.18423 7.0471 4.18423 4.75679 4.18423 2.77479 3.30334 2.77479 1.982 2.77479 1.89391 2.77479 0.0880887 4.93297 0.0880887Z" fill="#000000" fill-rule="nonzero" fill-opacity="1" transform="matrix(1.00172 0 0 1 308.914 51.553)"/><path d="M11.6277-6.16621C11.6277-7.09113 11.5837-9.20525 10.5266-10.923 9.3374-12.6407 7.66372-12.949 6.65071-12.949 3.52355-12.949 0.968976-9.95402 0.968976-6.34239 0.968976-2.64266 3.69973 0.30831 7.0471 0.30831 8.80887 0.30831 10.4385-0.352355 11.5396-1.14515L11.3634-2.99502C9.60167-1.49751 7.70777-1.40942 7.09113-1.40942 4.84488-1.40942 3.03905-3.3914 2.95099-6.16621ZM3.0831-7.70777C3.52355-9.8219 5.02106-11.2313 6.65071-11.2313 8.10416-11.2313 9.64573-10.3064 10.0421-7.70777Z" fill="#000000" fill-rule="nonzero" fill-opacity="1" transform="matrix(1.00172 0 0 1 322.979 51.553)"/><path d="M12.2443-8.36843C12.2443-10.2183 11.8039-12.7729 8.36843-12.7729 5.85788-12.7729 4.44846-10.879 4.31635-10.6587L4.31635-12.6407 2.29031-12.6407 2.29031 0 4.44846 0 4.44846-6.87092C4.44846-8.72078 5.15317-11.0551 7.31136-11.0551 9.99808-11.0551 10.0421-9.07314 10.0421-8.19225L10.0421 0 12.2443 0Z" fill="#000000" fill-rule="nonzero" fill-opacity="1" transform="matrix(1.00172 0 0 1 335.479 51.553)"/><path d="M11.5396-11.7599C9.86593-12.6848 8.89696-12.949 7.17924-12.949 3.30334-12.949 1.01302-9.55761 1.01302-6.2543 1.01302-2.77479 3.56758 0.30831 7.09113 0.30831 8.58866 0.30831 10.1302-0.0880887 11.6717-1.14515L11.4956-2.99502C10.0421-1.89391 8.5446-1.49751 7.09113-1.49751 4.75679-1.49751 3.21522-3.52355 3.21522-6.2543 3.21522-8.45651 4.22826-11.1432 7.22327-11.1432 8.67672-11.1432 9.64573-10.923 11.1873-9.90996Z" fill="#000000" fill-rule="nonzero" fill-opacity="1" transform="matrix(1.00172 0 0 1 350.016 51.553)"/><path d="M11.6277-6.16621C11.6277-7.09113 11.5837-9.20525 10.5266-10.923 9.3374-12.6407 7.66372-12.949 6.65071-12.949 3.52355-12.949 0.968976-9.95402 0.968976-6.34239 0.968976-2.64266 3.69973 0.30831 7.0471 0.30831 8.80887 0.30831 10.4385-0.352355 11.5396-1.14515L11.3634-2.99502C9.60167-1.49751 7.70777-1.40942 7.09113-1.40942 4.84488-1.40942 3.03905-3.3914 2.95099-6.16621ZM3.0831-7.70777C3.52355-9.8219 5.02106-11.2313 6.65071-11.2313 8.10416-11.2313 9.64573-10.3064 10.0421-7.70777Z" fill="#000000" fill-rule="nonzero" fill-opacity="1" transform="matrix(1.00172 0 0 1 362.516 51.553)"/><path d="M10.6147-19.5117 8.10416-19.5117 0.792798 0 2.86287 0 5.02106-5.72576 13.2133-5.72576 15.3274 0 17.9261 0ZM12.5967-7.31136 5.63768-7.31136 7.44348-12.3764C8.01607-14.0502 8.89696-16.4285 9.11719-17.4856 9.20525-17.0892 9.38143-16.3845 10.0421-14.5346Z" fill="#000000" fill-rule="nonzero" fill-opacity="1" transform="matrix(1.00172 0 0 1 135.677 51.553)"/><path d="M4.40443-6.03406C4.40443-8.80887 6.43047-10.8349 9.20525-10.923L9.20525-12.7729C6.69474-12.7729 5.15317-11.3634 4.27229-10.0861L4.27229-12.6407 2.29031-12.6407 2.29031 0 4.40443 0Z" fill="#000000" fill-rule="nonzero" fill-opacity="1" transform="matrix(1.00172 0 0 1 154.432 51.553)"/><path d="M4.93297-10.8349 8.89696-10.8349 8.89696-12.4646 4.93297-12.4646 4.93297-16.0321 2.99502-16.0321 2.99502-12.4646 0.528532-12.4646 0.528532-10.8349 2.90693-10.8349 2.90693-3.34737C2.90693-1.67369 3.30334 0.30831 5.24129 0.30831 7.17924 0.30831 8.63269-0.396399 9.3374-0.748754L8.89696-2.42244C8.14819-1.80582 7.2673-1.49751 6.34239-1.49751 5.32935-1.49751 4.93297-2.33435 4.93297-3.83187Z" fill="#000000" fill-rule="nonzero" fill-opacity="1" transform="matrix(1.00172 0 0 1 164.044 51.553)"/><path d="M4.58061-19.1152 2.07008-19.1152 2.07008-16.6047 4.58061-16.6047ZM4.40443-12.4646 2.29031-12.4646 2.29031 0 4.40443 0Z" fill="#000000" fill-rule="nonzero" fill-opacity="1" transform="matrix(1.00172 0 0 1 174.204 51.553)"/><path d="M12.8609-19.5117 10.5266-19.5117 10.5266-17.1773 12.8609-17.1773ZM12.7288-12.4646 10.6147-12.4646 10.6147 0 12.7288 0ZM4.93297-10.8349 8.28034-10.8349 8.28034-12.4646 4.84488-12.4646 4.84488-15.856C4.84488-17.6618 5.85788-18.1022 6.56259-18.1022 7.17924-18.1022 7.79584-17.882 8.28034-17.5737L8.28034-19.5117C8.10416-19.5557 7.39945-19.82 6.56259-19.82 4.49252-19.82 2.81884-17.8379 2.81884-15.0191L2.81884-12.4646 0.748754-12.4646 0.748754-10.8349 2.81884-10.8349 2.81884 0 4.93297 0Z" fill="#000000" fill-rule="nonzero" fill-opacity="1" transform="matrix(1.00172 0 0 1 180.924 51.553)"/><path d="M11.5396-11.7599C9.86593-12.6848 8.89696-12.949 7.17924-12.949 3.30334-12.949 1.01302-9.55761 1.01302-6.2543 1.01302-2.77479 3.56758 0.30831 7.09113 0.30831 8.58866 0.30831 10.1302-0.0880887 11.6717-1.14515L11.4956-2.99502C10.0421-1.89391 8.5446-1.49751 7.09113-1.49751 4.75679-1.49751 3.21522-3.52355 3.21522-6.2543 3.21522-8.45651 4.22826-11.1432 7.22327-11.1432 8.67672-11.1432 9.64573-10.923 11.1873-9.90996Z" fill="#000000" fill-rule="nonzero" fill-opacity="1" transform="matrix(1.00172 0 0 1 196.006 51.553)"/><path d="M4.58061-19.1152 2.07008-19.1152 2.07008-16.6047 4.58061-16.6047ZM4.40443-12.4646 2.29031-12.4646 2.29031 0 4.40443 0Z" fill="#000000" fill-rule="nonzero" fill-opacity="1" transform="matrix(1.00172 0 0 1 208.506 51.553)"/><path d="M11.2313-8.10416C11.2313-10.967 9.16122-12.949 6.56259-12.949 4.75679-12.949 3.47952-12.5086 2.15817-11.7599L2.33435-9.90996C3.78781-10.923 5.19723-11.2754 6.56259-11.2754 7.88395-11.2754 9.02908-10.1743 9.02908-8.10416L9.02908-6.87092C4.80082-6.82689 1.23324-5.63768 1.23324-3.17119 1.23324-1.982 1.982 0.30831 4.44846 0.30831 4.84488 0.30831 7.48754 0.264266 9.11719-1.01302L9.11719 0 11.2313 0ZM9.02908-3.69973C9.02908-3.17119 9.02908-2.46648 8.06013-1.93795 7.2673-1.45346 6.16621-1.40942 5.85788-1.40942 4.53658-1.40942 3.25928-2.07008 3.25928-3.21522 3.25928-5.19723 7.79584-5.37341 9.02908-5.4615Z" fill="#000000" fill-rule="nonzero" fill-opacity="1" transform="matrix(1.00172 0 0 1 215.227 51.553)"/><path d="M4.40443-19.5117 2.29031-19.5117 2.29031 0 4.40443 0Z" fill="#000000" fill-rule="nonzero" fill-opacity="1" transform="matrix(1.00172 0 0 1 228.746 51.553)"/><path d="M4.58061-19.1152 2.07008-19.1152 2.07008-16.6047 4.58061-16.6047ZM4.40443-12.4646 2.29031-12.4646 2.29031 0 4.40443 0Z" fill="#000000" fill-rule="nonzero" fill-opacity="1" transform="matrix(1.00172 0 0 1 244.836 51.553)"/><path d="M12.2443-8.36843C12.2443-10.2183 11.8039-12.7729 8.36843-12.7729 5.85788-12.7729 4.44846-10.879 4.31635-10.6587L4.31635-12.6407 2.29031-12.6407 2.29031 0 4.44846 0 4.44846-6.87092C4.44846-8.72078 5.15317-11.0551 7.31136-11.0551 9.99808-11.0551 10.0421-9.07314 10.0421-8.19225L10.0421 0 12.2443 0Z" fill="#000000" fill-rule="nonzero" fill-opacity="1" transform="matrix(1.00172 0 0 1 251.556 51.553)"/><path d="M4.93297-10.8349 8.89696-10.8349 8.89696-12.4646 4.93297-12.4646 4.93297-16.0321 2.99502-16.0321 2.99502-12.4646 0.528532-12.4646 0.528532-10.8349 2.90693-10.8349 2.90693-3.34737C2.90693-1.67369 3.30334 0.30831 5.24129 0.30831 7.17924 0.30831 8.63269-0.396399 9.3374-0.748754L8.89696-2.42244C8.14819-1.80582 7.2673-1.49751 6.34239-1.49751 5.32935-1.49751 4.93297-2.33435 4.93297-3.83187Z" fill="#000000" fill-rule="nonzero" fill-opacity="1" transform="matrix(1.00172 0 0 1 266.092 51.553)"/><path d="M11.6277-6.16621C11.6277-7.09113 11.5837-9.20525 10.5266-10.923 9.3374-12.6407 7.66372-12.949 6.65071-12.949 3.52355-12.949 0.968976-9.95402 0.968976-6.34239 0.968976-2.64266 3.69973 0.30831 7.0471 0.30831 8.80887 0.30831 10.4385-0.352355 11.5396-1.14515L11.3634-2.99502C9.60167-1.49751 7.70777-1.40942 7.09113-1.40942 4.84488-1.40942 3.03905-3.3914 2.95099-6.16621ZM3.0831-7.70777C3.52355-9.8219 5.02106-11.2313 6.65071-11.2313 8.10416-11.2313 9.64573-10.3064 10.0421-7.70777Z" fill="#000000" fill-rule="nonzero" fill-opacity="1" transform="matrix(1.00172 0 0 1 276.249 51.553)"/><path d="M4.40443-19.5117 2.29031-19.5117 2.29031 0 4.40443 0Z" fill="#000000" fill-rule="nonzero" fill-opacity="1" transform="matrix(1.00172 0 0 1 288.75 51.553)"/><path d="M4.40443-19.5117 2.29031-19.5117 2.29031 0 4.40443 0Z" fill="#000000" fill-rule="nonzero" fill-opacity="1" transform="matrix(1.00172 0 0 1 295.473 51.553)"/><path d="M4.58061-19.1152 2.07008-19.1152 2.07008-16.6047 4.58061-16.6047ZM4.40443-12.4646 2.29031-12.4646 2.29031 0 4.40443 0Z" fill="#000000" fill-rule="nonzero" fill-opacity="1" transform="matrix(1.00172 0 0 1 302.193 51.553)"/><path d="M9.90996-10.967C10.5266-10.967 11.2754-11.0992 11.9801-11.0992 12.4646-11.0992 13.5657-11.0111 13.6097-11.0111L13.3014-12.7729C11.3634-12.7729 9.73379-12.2443 8.89696-11.892 8.28034-12.3764 7.35542-12.7729 6.21024-12.7729 3.78781-12.7729 1.76177-10.7468 1.76177-8.19225 1.76177-7.17924 2.11413-6.16621 2.68671-5.41747 1.84986-4.27229 1.84986-3.17119 1.84986-3.03905 1.84986-2.29031 2.11413-1.49751 2.59862-0.880887 1.14515-0.0440443 0.792798 1.27729 0.792798 1.982 0.792798 4.09611 3.56758 5.76982 7.00307 5.76982 10.4385 5.76982 13.2133 4.14017 13.2133 1.982 13.2133-1.93795 8.5446-1.93795 7.44348-1.93795L4.977-1.93795C4.62464-1.93795 3.34737-1.93795 3.34737-3.43546 3.34737-3.74376 3.43546-4.18423 3.65569-4.44846 4.22826-4.00805 5.15317-3.61164 6.21024-3.61164 8.72078-3.61164 10.7028-5.72576 10.7028-8.19225 10.7028-9.55761 10.0861-10.6147 9.77784-11.0111ZM6.21024-5.24129C5.15317-5.24129 3.69973-5.85788 3.69973-8.19225 3.69973-10.5266 5.15317-11.1873 6.21024-11.1873 7.39945-11.1873 8.72078-10.3945 8.72078-8.19225 8.72078-6.03406 7.39945-5.24129 6.21024-5.24129ZM7.48754 0.0880887C8.10416 0.0880887 11.2754 0.0880887 11.2754 2.02604 11.2754 3.25928 9.3374 4.18423 7.0471 4.18423 4.75679 4.18423 2.77479 3.30334 2.77479 1.982 2.77479 1.89391 2.77479 0.0880887 4.93297 0.0880887Z" fill="#000000" fill-rule="nonzero" fill-opacity="1" transform="matrix(1.00172 0 0 1 308.914 51.553)"/><path d="M11.6277-6.16621C11.6277-7.09113 11.5837-9.20525 10.5266-10.923 9.3374-12.6407 7.66372-12.949 6.65071-12.949 3.52355-12.949 0.968976-9.95402 0.968976-6.34239 0.968976-2.64266 3.69973 0.30831 7.0471 0.30831 8.80887 0.30831 10.4385-0.352355 11.5396-1.14515L11.3634-2.99502C9.60167-1.49751 7.70777-1.40942 7.09113-1.40942 4.84488-1.40942 3.03905-3.3914 2.95099-6.16621ZM3.0831-7.70777C3.52355-9.8219 5.02106-11.2313 6.65071-11.2313 8.10416-11.2313 9.64573-10.3064 10.0421-7.70777Z" fill="#000000" fill-rule="nonzero" fill-opacity="1" transform="matrix(1.00172 0 0 1 322.979 51.553)"/><path d="M12.2443-8.36843C12.2443-10.2183 11.8039-12.7729 8.36843-12.7729 5.85788-12.7729 4.44846-10.879 4.31635-10.6587L4.31635-12.6407 2.29031-12.6407 2.29031 0 4.44846 0 4.44846-6.87092C4.44846-8.72078 5.15317-11.0551 7.31136-11.0551 9.99808-11.0551 10.0421-9.07314 10.0421-8.19225L10.0421 0 12.2443 0Z" fill="#000000" fill-rule="nonzero" fill-opacity="1" transform="matrix(1.00172 0 0 1 335.479 51.553)"/><path d="M11.5396-11.7599C9.86593-12.6848 8.89696-12.949 7.17924-12.949 3.30334-12.949 1.01302-9.55761 1.01302-6.2543 1.01302-2.77479 3.56758 0.30831 7.09113 0.30831 8.58866 0.30831 10.1302-0.0880887 11.6717-1.14515L11.4956-2.99502C10.0421-1.89391 8.5446-1.49751 7.09113-1.49751 4.75679-1.49751 3.21522-3.52355 3.21522-6.2543 3.21522-8.45651 4.22826-11.1432 7.22327-11.1432 8.67672-11.1432 9.64573-10.923 11.1873-9.90996Z" fill="#000000" fill-rule="nonzero" fill-opacity="1" transform="matrix(1.00172 0 0 1 350.016 51.553)"/><path d="M11.6277-6.16621C11.6277-7.09113 11.5837-9.20525 10.5266-10.923 9.3374-12.6407 7.66372-12.949 6.65071-12.949 3.52355-12.949 0.968976-9.95402 0.968976-6.34239 0.968976-2.64266 3.69973 0.30831 7.0471 0.30831 8.80887 0.30831 10.4385-0.352355 11.5396-1.14515L11.3634-2.99502C9.60167-1.49751 7.70777-1.40942 7.09113-1.40942 4.84488-1.40942 3.03905-3.3914 2.95099-6.16621ZM3.0831-7.70777C3.52355-9.8219 5.02106-11.2313 6.65071-11.2313 8.10416-11.2313 9.64573-10.3064 10.0421-7.70777Z" fill="#000000" fill-rule="nonzero" fill-opacity="1" transform="matrix(1.00172 0 0 1 362.516 51.553)"/><path d="M14.887-9.95402C13.918-7.39945 12.5967-3.91993 12.2884-2.59862L12.2443-2.59862C12.1122-3.21522 11.7599-4.22826 11.3634-5.41747L6.95901-17.0452 5.99003-19.5117 2.81884-19.5117 2.81884 0 5.02106 0 5.02106-17.4416C5.19723-16.5166 6.34239-13.4776 7.0471-11.5396L11.2313-0.616621 13.2573-0.616621 17.0011-10.3945C17.882-12.6848 18.1463-13.3895 18.3665-13.962 18.6308-14.7989 19.3795-16.8249 19.5117-17.4416L19.5557-17.4416 19.5557 0 21.7579 0 21.7579-19.5117 18.5427-19.5117Z" fill="#000000" fill-rule="nonzero" fill-opacity="1" transform="matrix(1.00172 0 0 1 165.612 293.108)"/><path d="M11.2313-8.10416C11.2313-10.967 9.16122-12.949 6.56259-12.949 4.75679-12.949 3.47952-12.5086 2.15817-11.7599L2.33435-9.90996C3.78781-10.923 5.19723-11.2754 6.56259-11.2754 7.88395-11.2754 9.02908-10.1743 9.02908-8.10416L9.02908-6.87092C4.80082-6.82689 1.23324-5.63768 1.23324-3.17119 1.23324-1.982 1.982 0.30831 4.44846 0.30831 4.84488 0.30831 7.48754 0.264266 9.11719-1.01302L9.11719 0 11.2313 0ZM9.02908-3.69973C9.02908-3.17119 9.02908-2.46648 8.06013-1.93795 7.2673-1.45346 6.16621-1.40942 5.85788-1.40942 4.53658-1.40942 3.25928-2.07008 3.25928-3.21522 3.25928-5.19723 7.79584-5.37341 9.02908-5.4615Z" fill="#000000" fill-rule="nonzero" fill-opacity="1" transform="matrix(1.00172 0 0 1 190.226 293.108)"/><path d="M11.5396-11.7599C9.86593-12.6848 8.89696-12.949 7.17924-12.949 3.30334-12.949 1.01302-9.55761 1.01302-6.2543 1.01302-2.77479 3.56758 0.30831 7.09113 0.30831 8.58866 0.30831 10.1302-0.0880887 11.6717-1.14515L11.4956-2.99502C10.0421-1.89391 8.5446-1.49751 7.09113-1.49751 4.75679-1.49751 3.21522-3.52355 3.21522-6.2543 3.21522-8.45651 4.22826-11.1432 7.22327-11.1432 8.67672-11.1432 9.64573-10.923 11.1873-9.90996Z" fill="#000000" fill-rule="nonzero" fill-opacity="1" transform="matrix(1.00172 0 0 1 203.746 293.108)"/><path d="M12.2443-8.36843C12.2443-10.2183 11.8039-12.7729 8.36843-12.7729 6.65071-12.7729 5.28532-11.936 4.40443-10.7468L4.40443-19.5117 2.29031-19.5117 2.29031 0 4.44846 0 4.44846-6.87092C4.44846-8.72078 5.15317-11.0551 7.31136-11.0551 9.99808-11.0551 10.0421-9.07314 10.0421-8.19225L10.0421 0 12.2443 0Z" fill="#000000" fill-rule="nonzero" fill-opacity="1" transform="matrix(1.00172 0 0 1 216.249 293.108)"/><path d="M4.58061-19.1152 2.07008-19.1152 2.07008-16.6047 4.58061-16.6047ZM4.40443-12.4646 2.29031-12.4646 2.29031 0 4.40443 0Z" fill="#000000" fill-rule="nonzero" fill-opacity="1" transform="matrix(1.00172 0 0 1 230.783 293.108)"/><path d="M12.2443-8.36843C12.2443-10.2183 11.8039-12.7729 8.36843-12.7729 5.85788-12.7729 4.44846-10.879 4.31635-10.6587L4.31635-12.6407 2.29031-12.6407 2.29031 0 4.44846 0 4.44846-6.87092C4.44846-8.72078 5.15317-11.0551 7.31136-11.0551 9.99808-11.0551 10.0421-9.07314 10.0421-8.19225L10.0421 0 12.2443 0Z" fill="#000000" fill-rule="nonzero" fill-opacity="1" transform="matrix(1.00172 0 0 1 237.503 293.108)"/><path d="M11.6277-6.16621C11.6277-7.09113 11.5837-9.20525 10.5266-10.923 9.3374-12.6407 7.66372-12.949 6.65071-12.949 3.52355-12.949 0.968976-9.95402 0.968976-6.34239 0.968976-2.64266 3.69973 0.30831 7.0471 0.30831 8.80887 0.30831 10.4385-0.352355 11.5396-1.14515L11.3634-2.99502C9.60167-1.49751 7.70777-1.40942 7.09113-1.40942 4.84488-1.40942 3.03905-3.3914 2.95099-6.16621ZM3.0831-7.70777C3.52355-9.8219 5.02106-11.2313 6.65071-11.2313 8.10416-11.2313 9.64573-10.3064 10.0421-7.70777Z" fill="#000000" fill-rule="nonzero" fill-opacity="1" transform="matrix(1.00172 0 0 1 252.039 293.108)"/><path d="M4.40443-19.5117 2.29031-19.5117 2.29031 0 4.40443 0Z" fill="#000000" fill-rule="nonzero" fill-opacity="1" transform="matrix(1.00172 0 0 1 273.909 293.108)"/><path d="M11.6277-6.16621C11.6277-7.09113 11.5837-9.20525 10.5266-10.923 9.3374-12.6407 7.66372-12.949 6.65071-12.949 3.52355-12.949 0.968976-9.95402 0.968976-6.34239 0.968976-2.64266 3.69973 0.30831 7.0471 0.30831 8.80887 0.30831 10.4385-0.352355 11.5396-1.14515L11.3634-2.99502C9.60167-1.49751 7.70777-1.40942 7.09113-1.40942 4.84488-1.40942 3.03905-3.3914 2.95099-6.16621ZM3.0831-7.70777C3.52355-9.8219 5.02106-11.2313 6.65071-11.2313 8.10416-11.2313 9.64573-10.3064 10.0421-7.70777Z" fill="#000000" fill-rule="nonzero" fill-opacity="1" transform="matrix(1.00172 0 0 1 280.629 293.108)"/><path d="M11.2313-8.10416C11.2313-10.967 9.16122-12.949 6.56259-12.949 4.75679-12.949 3.47952-12.5086 2.15817-11.7599L2.33435-9.90996C3.78781-10.923 5.19723-11.2754 6.56259-11.2754 7.88395-11.2754 9.02908-10.1743 9.02908-8.10416L9.02908-6.87092C4.80082-6.82689 1.23324-5.63768 1.23324-3.17119 1.23324-1.982 1.982 0.30831 4.44846 0.30831 4.84488 0.30831 7.48754 0.264266 9.11719-1.01302L9.11719 0 11.2313 0ZM9.02908-3.69973C9.02908-3.17119 9.02908-2.46648 8.06013-1.93795 7.2673-1.45346 6.16621-1.40942 5.85788-1.40942 4.53658-1.40942 3.25928-2.07008 3.25928-3.21522 3.25928-5.19723 7.79584-5.37341 9.02908-5.4615Z" fill="#000000" fill-rule="nonzero" fill-opacity="1" transform="matrix(1.00172 0 0 1 293.13 293.108)"/><path d="M4.40443-6.03406C4.40443-8.80887 6.43047-10.8349 9.20525-10.923L9.20525-12.7729C6.69474-12.7729 5.15317-11.3634 4.27229-10.0861L4.27229-12.6407 2.29031-12.6407 2.29031 0 4.40443 0Z" fill="#000000" fill-rule="nonzero" fill-opacity="1" transform="matrix(1.00172 0 0 1 305.89 293.108)"/><path d="M12.2443-8.36843C12.2443-10.2183 11.8039-12.7729 8.36843-12.7729 5.85788-12.7729 4.44846-10.879 4.31635-10.6587L4.31635-12.6407 2.29031-12.6407 2.29031 0 4.44846 0 4.44846-6.87092C4.44846-8.72078 5.15317-11.0551 7.31136-11.0551 9.99808-11.0551 10.0421-9.07314 10.0421-8.19225L10.0421 0 12.2443 0Z" fill="#000000" fill-rule="nonzero" fill-opacity="1" transform="matrix(1.00172 0 0 1 315.505 293.108)"/><path d="M4.58061-19.1152 2.07008-19.1152 2.07008-16.6047 4.58061-16.6047ZM4.40443-12.4646 2.29031-12.4646 2.29031 0 4.40443 0Z" fill="#000000" fill-rule="nonzero" fill-opacity="1" transform="matrix(1.00172 0 0 1 330.01 293.108)"/><path d="M12.2443-8.36843C12.2443-10.2183 11.8039-12.7729 8.36843-12.7729 5.85788-12.7729 4.44846-10.879 4.31635-10.6587L4.31635-12.6407 2.29031-12.6407 2.29031 0 4.44846 0 4.44846-6.87092C4.44846-8.72078 5.15317-11.0551 7.31136-11.0551 9.99808-11.0551 10.0421-9.07314 10.0421-8.19225L10.0421 0 12.2443 0Z" fill="#000000" fill-rule="nonzero" fill-opacity="1" transform="matrix(1.00172 0 0 1 336.733 293.108)"/><path d="M9.90996-10.967C10.5266-10.967 11.2754-11.0992 11.9801-11.0992 12.4646-11.0992 13.5657-11.0111 13.6097-11.0111L13.3014-12.7729C11.3634-12.7729 9.73379-12.2443 8.89696-11.892 8.28034-12.3764 7.35542-12.7729 6.21024-12.7729 3.78781-12.7729 1.76177-10.7468 1.76177-8.19225 1.76177-7.17924 2.11413-6.16621 2.68671-5.41747 1.84986-4.27229 1.84986-3.17119 1.84986-3.03905 1.84986-2.29031 2.11413-1.49751 2.59862-0.880887 1.14515-0.0440443 0.792798 1.27729 0.792798 1.982 0.792798 4.09611 3.56758 5.76982 7.00307 5.76982 10.4385 5.76982 13.2133 4.14017 13.2133 1.982 13.2133-1.93795 8.5446-1.93795 7.44348-1.93795L4.977-1.93795C4.62464-1.93795 3.34737-1.93795 3.34737-3.43546 3.34737-3.74376 3.43546-4.18423 3.65569-4.44846 4.22826-4.00805 5.15317-3.61164 6.21024-3.61164 8.72078-3.61164 10.7028-5.72576 10.7028-8.19225 10.7028-9.55761 10.0861-10.6147 9.77784-11.0111ZM6.21024-5.24129C5.15317-5.24129 3.69973-5.85788 3.69973-8.19225 3.69973-10.5266 5.15317-11.1873 6.21024-11.1873 7.39945-11.1873 8.72078-10.3945 8.72078-8.19225 8.72078-6.03406 7.39945-5.24129 6.21024-5.24129ZM7.48754 0.0880887C8.10416 0.0880887 11.2754 0.0880887 11.2754 2.02604 11.2754 3.25928 9.3374 4.18423 7.0471 4.18423 4.75679 4.18423 2.77479 3.30334 2.77479 1.982 2.77479 1.89391 2.77479 0.0880887 4.93297 0.0880887Z" fill="#000000" fill-rule="nonzero" fill-opacity="1" transform="matrix(1.00172 0 0 1 351.267 293.108)"/><path d="M16.6488-19.5117 14.4906-19.5117 14.4906-6.51856C14.4906-2.81884 12.1122-0.968976 9.73379-0.968976 7.44348-0.968976 5.15317-2.73075 5.15317-6.51856L5.15317-19.5117 2.64266-19.5117 2.64266-6.56259C2.64266-2.46648 5.946 0.616621 9.73379 0.616621 13.4776 0.616621 16.6488-2.46648 16.6488-6.56259Z" fill="#000000" fill-rule="nonzero" fill-opacity="1" transform="matrix(1.00172 0 0 1 547.169 340.463)"/><path d="M12.2443-8.36843C12.2443-10.2183 11.8039-12.7729 8.36843-12.7729 5.85788-12.7729 4.44846-10.879 4.31635-10.6587L4.31635-12.6407 2.29031-12.6407 2.29031 0 4.44846 0 4.44846-6.87092C4.44846-8.72078 5.15317-11.0551 7.31136-11.0551 9.99808-11.0551 10.0421-9.07314 10.0421-8.19225L10.0421 0 12.2443 0Z" fill="#000000" fill-rule="nonzero" fill-opacity="1" transform="matrix(1.00172 0 0 1 566.509 340.463)"/><path d="M9.64573-12.0682C8.19225-12.7288 7.0471-12.949 5.59365-12.949 4.88894-12.949 0.924931-12.949 0.924931-9.29337 0.924931-7.88395 1.76177-7.00307 2.46648-6.47453 3.30334-5.85788 3.91993-5.72576 5.4615-5.41747 6.47453-5.24129 8.10416-4.88894 8.10416-3.3914 8.10416-1.45346 5.90194-1.45346 5.4615-1.45346 3.21522-1.45346 1.62964-2.51053 1.14515-2.81884L0.792798-0.924931C1.67369-0.484488 3.21522 0.30831 5.50553 0.30831 6.03406 0.30831 7.57563 0.30831 8.76484-0.572577 9.64573-1.27729 10.1302-2.37839 10.1302-3.61164 10.1302-5.15317 9.07314-6.07812 9.02908-6.16621 7.92798-7.17924 7.17924-7.35542 5.76982-7.57563 4.22826-7.88395 2.90693-8.19225 2.90693-9.55761 2.90693-11.2754 4.93297-11.2754 5.32935-11.2754 6.21024-11.2754 7.70777-11.1873 9.29337-10.2183Z" fill="#000000" fill-rule="nonzero" fill-opacity="1" transform="matrix(1.00172 0 0 1 581.045 340.463)"/><path d="M12.2443-12.4646 10.0421-12.4646 10.0421-4.31635C10.0421-2.20222 8.45651-1.23324 6.65071-1.23324 4.6687-1.23324 4.44846-1.982 4.44846-3.17119L4.44846-12.4646 2.29031-12.4646 2.29031-3.0831C2.29031-1.05706 2.90693 0.30831 5.24129 0.30831 6.73877 0.30831 8.72078-0.132133 10.1302-1.36537L10.1302 0 12.2443 0Z" fill="#000000" fill-rule="nonzero" fill-opacity="1" transform="matrix(1.00172 0 0 1 591.829 340.463)"/><path d="M4.49252-1.27729C5.37341-0.484488 6.60665 0.30831 8.28034 0.30831 11.0111 0.30831 13.4776-2.46648 13.4776-6.2543 13.4776-9.64573 11.7158-12.7729 9.02908-12.7729 7.35542-12.7729 5.72576-12.2003 4.40443-11.0992L4.40443-12.4646 2.29031-12.4646 2.29031 5.4615 4.49252 5.4615ZM4.49252-9.3374C5.15317-10.3504 6.2543-10.967 7.48754-10.967 9.60167-10.967 11.2754-8.8529 11.2754-6.2543 11.2754-3.3914 9.29337-1.40942 7.17924-1.40942 6.07812-1.40942 5.32935-1.982 4.75679-2.73075 4.49252-3.12716 4.49252-3.21522 4.49252-3.69973Z" fill="#000000" fill-rule="nonzero" fill-opacity="1" transform="matrix(1.00172 0 0 1 606.362 340.463)"/><path d="M11.6277-6.16621C11.6277-7.09113 11.5837-9.20525 10.5266-10.923 9.3374-12.6407 7.66372-12.949 6.65071-12.949 3.52355-12.949 0.968976-9.95402 0.968976-6.34239 0.968976-2.64266 3.69973 0.30831 7.0471 0.30831 8.80887 0.30831 10.4385-0.352355 11.5396-1.14515L11.3634-2.99502C9.60167-1.49751 7.70777-1.40942 7.09113-1.40942 4.84488-1.40942 3.03905-3.3914 2.95099-6.16621ZM3.0831-7.70777C3.52355-9.8219 5.02106-11.2313 6.65071-11.2313 8.10416-11.2313 9.64573-10.3064 10.0421-7.70777Z" fill="#000000" fill-rule="nonzero" fill-opacity="1" transform="matrix(1.00172 0 0 1 621.687 340.463)"/><path d="M4.40443-6.03406C4.40443-8.80887 6.43047-10.8349 9.20525-10.923L9.20525-12.7729C6.69474-12.7729 5.15317-11.3634 4.27229-10.0861L4.27229-12.6407 2.29031-12.6407 2.29031 0 4.40443 0Z" fill="#000000" fill-rule="nonzero" fill-opacity="1" transform="matrix(1.00172 0 0 1 634.187 340.463)"/><path d="M12.5526-12.4646 10.4385-12.4646 8.19225-6.65071C7.61966-5.06511 6.73877-2.81884 6.51856-1.49751L6.47453-1.49751C6.34239-2.51053 5.59365-4.44846 5.32935-5.19723L2.59862-12.4646 0.396399-12.4646 5.24129 0 7.70777 0Z" fill="#000000" fill-rule="nonzero" fill-opacity="1" transform="matrix(1.00172 0 0 1 643.802 340.463)"/><path d="M4.58061-19.1152 2.07008-19.1152 2.07008-16.6047 4.58061-16.6047ZM4.40443-12.4646 2.29031-12.4646 2.29031 0 4.40443 0Z" fill="#000000" fill-rule="nonzero" fill-opacity="1" transform="matrix(1.00172 0 0 1 656.771 340.463)"/><path d="M9.64573-12.0682C8.19225-12.7288 7.0471-12.949 5.59365-12.949 4.88894-12.949 0.924931-12.949 0.924931-9.29337 0.924931-7.88395 1.76177-7.00307 2.46648-6.47453 3.30334-5.85788 3.91993-5.72576 5.4615-5.41747 6.47453-5.24129 8.10416-4.88894 8.10416-3.3914 8.10416-1.45346 5.90194-1.45346 5.4615-1.45346 3.21522-1.45346 1.62964-2.51053 1.14515-2.81884L0.792798-0.924931C1.67369-0.484488 3.21522 0.30831 5.50553 0.30831 6.03406 0.30831 7.57563 0.30831 8.76484-0.572577 9.64573-1.27729 10.1302-2.37839 10.1302-3.61164 10.1302-5.15317 9.07314-6.07812 9.02908-6.16621 7.92798-7.17924 7.17924-7.35542 5.76982-7.57563 4.22826-7.88395 2.90693-8.19225 2.90693-9.55761 2.90693-11.2754 4.93297-11.2754 5.32935-11.2754 6.21024-11.2754 7.70777-11.1873 9.29337-10.2183Z" fill="#000000" fill-rule="nonzero" fill-opacity="1" transform="matrix(1.00172 0 0 1 663.491 340.463)"/><path d="M11.6277-6.16621C11.6277-7.09113 11.5837-9.20525 10.5266-10.923 9.3374-12.6407 7.66372-12.949 6.65071-12.949 3.52355-12.949 0.968976-9.95402 0.968976-6.34239 0.968976-2.64266 3.69973 0.30831 7.0471 0.30831 8.80887 0.30831 10.4385-0.352355 11.5396-1.14515L11.3634-2.99502C9.60167-1.49751 7.70777-1.40942 7.09113-1.40942 4.84488-1.40942 3.03905-3.3914 2.95099-6.16621ZM3.0831-7.70777C3.52355-9.8219 5.02106-11.2313 6.65071-11.2313 8.10416-11.2313 9.64573-10.3064 10.0421-7.70777Z" fill="#000000" fill-rule="nonzero" fill-opacity="1" transform="matrix(1.00172 0 0 1 674.275 340.463)"/><path d="M12.2003-19.5117 10.0861-19.5117 10.0861-11.2313C8.58866-12.4646 7.0471-12.7729 5.99003-12.7729 3.21522-12.7729 1.01302-9.86593 1.01302-6.2543 1.01302-2.55457 3.17119 0.30831 5.85788 0.30831 6.78283 0.30831 8.41248 0.0440443 9.99808-1.45346L9.99808 0 12.2003 0ZM9.99808-3.91993C9.99808-3.52355 9.95402-2.99502 9.07314-2.20222 8.41248-1.62964 7.70777-1.40942 7.00307-1.40942 5.24129-1.40942 3.21522-2.73075 3.21522-6.21024 3.21522-9.90996 5.63768-11.0551 7.2673-11.0551 8.5446-11.0551 9.38143-10.4385 9.99808-9.51358Z" fill="#000000" fill-rule="nonzero" fill-opacity="1" transform="matrix(1.00172 0 0 1 686.776 340.463)"/><path d="M4.40443-19.5117 2.29031-19.5117 2.29031 0 4.40443 0Z" fill="#000000" fill-rule="nonzero" fill-opacity="1" transform="matrix(1.00172 0 0 1 578.526 374.162)"/><path d="M11.6277-6.16621C11.6277-7.09113 11.5837-9.20525 10.5266-10.923 9.3374-12.6407 7.66372-12.949 6.65071-12.949 3.52355-12.949 0.968976-9.95402 0.968976-6.34239 0.968976-2.64266 3.69973 0.30831 7.0471 0.30831 8.80887 0.30831 10.4385-0.352355 11.5396-1.14515L11.3634-2.99502C9.60167-1.49751 7.70777-1.40942 7.09113-1.40942 4.84488-1.40942 3.03905-3.3914 2.95099-6.16621ZM3.0831-7.70777C3.52355-9.8219 5.02106-11.2313 6.65071-11.2313 8.10416-11.2313 9.64573-10.3064 10.0421-7.70777Z" fill="#000000" fill-rule="nonzero" fill-opacity="1" transform="matrix(1.00172 0 0 1 585.247 374.162)"/><path d="M11.2313-8.10416C11.2313-10.967 9.16122-12.949 6.56259-12.949 4.75679-12.949 3.47952-12.5086 2.15817-11.7599L2.33435-9.90996C3.78781-10.923 5.19723-11.2754 6.56259-11.2754 7.88395-11.2754 9.02908-10.1743 9.02908-8.10416L9.02908-6.87092C4.80082-6.82689 1.23324-5.63768 1.23324-3.17119 1.23324-1.982 1.982 0.30831 4.44846 0.30831 4.84488 0.30831 7.48754 0.264266 9.11719-1.01302L9.11719 0 11.2313 0ZM9.02908-3.69973C9.02908-3.17119 9.02908-2.46648 8.06013-1.93795 7.2673-1.45346 6.16621-1.40942 5.85788-1.40942 4.53658-1.40942 3.25928-2.07008 3.25928-3.21522 3.25928-5.19723 7.79584-5.37341 9.02908-5.4615Z" fill="#000000" fill-rule="nonzero" fill-opacity="1" transform="matrix(1.00172 0 0 1 597.747 374.162)"/><path d="M4.40443-6.03406C4.40443-8.80887 6.43047-10.8349 9.20525-10.923L9.20525-12.7729C6.69474-12.7729 5.15317-11.3634 4.27229-10.0861L4.27229-12.6407 2.29031-12.6407 2.29031 0 4.40443 0Z" fill="#000000" fill-rule="nonzero" fill-opacity="1" transform="matrix(1.00172 0 0 1 610.482 374.162)"/><path d="M12.2443-8.36843C12.2443-10.2183 11.8039-12.7729 8.36843-12.7729 5.85788-12.7729 4.44846-10.879 4.31635-10.6587L4.31635-12.6407 2.29031-12.6407 2.29031 0 4.44846 0 4.44846-6.87092C4.44846-8.72078 5.15317-11.0551 7.31136-11.0551 9.99808-11.0551 10.0421-9.07314 10.0421-8.19225L10.0421 0 12.2443 0Z" fill="#000000" fill-rule="nonzero" fill-opacity="1" transform="matrix(1.00172 0 0 1 620.094 374.162)"/><path d="M4.58061-19.1152 2.07008-19.1152 2.07008-16.6047 4.58061-16.6047ZM4.40443-12.4646 2.29031-12.4646 2.29031 0 4.40443 0Z" fill="#000000" fill-rule="nonzero" fill-opacity="1" transform="matrix(1.00172 0 0 1 634.628 374.162)"/><path d="M12.2443-8.36843C12.2443-10.2183 11.8039-12.7729 8.36843-12.7729 5.85788-12.7729 4.44846-10.879 4.31635-10.6587L4.31635-12.6407 2.29031-12.6407 2.29031 0 4.44846 0 4.44846-6.87092C4.44846-8.72078 5.15317-11.0551 7.31136-11.0551 9.99808-11.0551 10.0421-9.07314 10.0421-8.19225L10.0421 0 12.2443 0Z" fill="#000000" fill-rule="nonzero" fill-opacity="1" transform="matrix(1.00172 0 0 1 641.348 374.162)"/><path d="M9.90996-10.967C10.5266-10.967 11.2754-11.0992 11.9801-11.0992 12.4646-11.0992 13.5657-11.0111 13.6097-11.0111L13.3014-12.7729C11.3634-12.7729 9.73379-12.2443 8.89696-11.892 8.28034-12.3764 7.35542-12.7729 6.21024-12.7729 3.78781-12.7729 1.76177-10.7468 1.76177-8.19225 1.76177-7.17924 2.11413-6.16621 2.68671-5.41747 1.84986-4.27229 1.84986-3.17119 1.84986-3.03905 1.84986-2.29031 2.11413-1.49751 2.59862-0.880887 1.14515-0.0440443 0.792798 1.27729 0.792798 1.982 0.792798 4.09611 3.56758 5.76982 7.00307 5.76982 10.4385 5.76982 13.2133 4.14017 13.2133 1.982 13.2133-1.93795 8.5446-1.93795 7.44348-1.93795L4.977-1.93795C4.62464-1.93795 3.34737-1.93795 3.34737-3.43546 3.34737-3.74376 3.43546-4.18423 3.65569-4.44846 4.22826-4.00805 5.15317-3.61164 6.21024-3.61164 8.72078-3.61164 10.7028-5.72576 10.7028-8.19225 10.7028-9.55761 10.0861-10.6147 9.77784-11.0111ZM6.21024-5.24129C5.15317-5.24129 3.69973-5.85788 3.69973-8.19225 3.69973-10.5266 5.15317-11.1873 6.21024-11.1873 7.39945-11.1873 8.72078-10.3945 8.72078-8.19225 8.72078-6.03406 7.39945-5.24129 6.21024-5.24129ZM7.48754 0.0880887C8.10416 0.0880887 11.2754 0.0880887 11.2754 2.02604 11.2754 3.25928 9.3374 4.18423 7.0471 4.18423 4.75679 4.18423 2.77479 3.30334 2.77479 1.982 2.77479 1.89391 2.77479 0.0880887 4.93297 0.0880887Z" fill="#000000" fill-rule="nonzero" fill-opacity="1" transform="matrix(1.00172 0 0 1 655.884 374.162)"/><path d="M13.0812-18.7188C11.5396-19.6438 9.95402-20.1283 7.92798-20.1283 4.00805-20.1283 1.5856-17.3535 1.5856-14.5787 1.5856-13.3895 1.982-12.2003 3.0831-11.0111 4.27229-9.73379 5.50553-9.42549 7.17924-9.02908 9.55761-8.41248 9.8219-8.32437 10.6147-7.66372 11.1873-7.17924 11.8039-6.2543 11.8039-5.02106 11.8039-3.17119 10.2623-1.32133 7.70777-1.32133 6.56259-1.32133 4.00805-1.5856 1.67369-3.61164L1.23324-1.32133C3.69973 0.220222 5.946 0.616621 7.70777 0.616621 11.4515 0.616621 14.0061-2.20222 14.0061-5.32935 14.0061-7.13518 13.1693-8.50054 12.5526-9.16122 11.2313-10.5706 10.3064-10.8349 7.70777-11.4515 6.07812-11.8479 5.63768-11.9801 4.75679-12.6848 4.58061-12.8609 3.78781-13.6978 3.78781-14.931 3.78781-16.5607 5.32935-18.2784 7.88395-18.2784 10.2623-18.2784 11.5837-17.3535 12.6407-16.4726Z" fill="#000000" fill-rule="nonzero" fill-opacity="1" transform="matrix(1.00172 0 0 1 235.388 340.773)"/><path d="M12.2443-12.4646 10.0421-12.4646 10.0421-4.31635C10.0421-2.20222 8.45651-1.23324 6.65071-1.23324 4.6687-1.23324 4.44846-1.982 4.44846-3.17119L4.44846-12.4646 2.29031-12.4646 2.29031-3.0831C2.29031-1.05706 2.90693 0.30831 5.24129 0.30831 6.73877 0.30831 8.72078-0.132133 10.1302-1.36537L10.1302 0 12.2443 0Z" fill="#000000" fill-rule="nonzero" fill-opacity="1" transform="matrix(1.00172 0 0 1 251.017 340.773)"/><path d="M4.49252-1.27729C5.37341-0.484488 6.60665 0.30831 8.28034 0.30831 11.0111 0.30831 13.4776-2.46648 13.4776-6.2543 13.4776-9.64573 11.7158-12.7729 9.02908-12.7729 7.35542-12.7729 5.72576-12.2003 4.40443-11.0992L4.40443-12.4646 2.29031-12.4646 2.29031 5.4615 4.49252 5.4615ZM4.49252-9.3374C5.15317-10.3504 6.2543-10.967 7.48754-10.967 9.60167-10.967 11.2754-8.8529 11.2754-6.2543 11.2754-3.3914 9.29337-1.40942 7.17924-1.40942 6.07812-1.40942 5.32935-1.982 4.75679-2.73075 4.49252-3.12716 4.49252-3.21522 4.49252-3.69973Z" fill="#000000" fill-rule="nonzero" fill-opacity="1" transform="matrix(1.00172 0 0 1 265.554 340.773)"/><path d="M11.6277-6.16621C11.6277-7.09113 11.5837-9.20525 10.5266-10.923 9.3374-12.6407 7.66372-12.949 6.65071-12.949 3.52355-12.949 0.968976-9.95402 0.968976-6.34239 0.968976-2.64266 3.69973 0.30831 7.0471 0.30831 8.80887 0.30831 10.4385-0.352355 11.5396-1.14515L11.3634-2.99502C9.60167-1.49751 7.70777-1.40942 7.09113-1.40942 4.84488-1.40942 3.03905-3.3914 2.95099-6.16621ZM3.0831-7.70777C3.52355-9.8219 5.02106-11.2313 6.65071-11.2313 8.10416-11.2313 9.64573-10.3064 10.0421-7.70777Z" fill="#000000" fill-rule="nonzero" fill-opacity="1" transform="matrix(1.00172 0 0 1 280.878 340.773)"/><path d="M4.40443-6.03406C4.40443-8.80887 6.43047-10.8349 9.20525-10.923L9.20525-12.7729C6.69474-12.7729 5.15317-11.3634 4.27229-10.0861L4.27229-12.6407 2.29031-12.6407 2.29031 0 4.40443 0Z" fill="#000000" fill-rule="nonzero" fill-opacity="1" transform="matrix(1.00172 0 0 1 293.378 340.773)"/><path d="M12.5526-12.4646 10.4385-12.4646 8.19225-6.65071C7.61966-5.06511 6.73877-2.81884 6.51856-1.49751L6.47453-1.49751C6.34239-2.51053 5.59365-4.44846 5.32935-5.19723L2.59862-12.4646 0.396399-12.4646 5.24129 0 7.70777 0Z" fill="#000000" fill-rule="nonzero" fill-opacity="1" transform="matrix(1.00172 0 0 1 302.99 340.773)"/><path d="M4.58061-19.1152 2.07008-19.1152 2.07008-16.6047 4.58061-16.6047ZM4.40443-12.4646 2.29031-12.4646 2.29031 0 4.40443 0Z" fill="#000000" fill-rule="nonzero" fill-opacity="1" transform="matrix(1.00172 0 0 1 315.962 340.773)"/><path d="M9.64573-12.0682C8.19225-12.7288 7.0471-12.949 5.59365-12.949 4.88894-12.949 0.924931-12.949 0.924931-9.29337 0.924931-7.88395 1.76177-7.00307 2.46648-6.47453 3.30334-5.85788 3.91993-5.72576 5.4615-5.41747 6.47453-5.24129 8.10416-4.88894 8.10416-3.3914 8.10416-1.45346 5.90194-1.45346 5.4615-1.45346 3.21522-1.45346 1.62964-2.51053 1.14515-2.81884L0.792798-0.924931C1.67369-0.484488 3.21522 0.30831 5.50553 0.30831 6.03406 0.30831 7.57563 0.30831 8.76484-0.572577 9.64573-1.27729 10.1302-2.37839 10.1302-3.61164 10.1302-5.15317 9.07314-6.07812 9.02908-6.16621 7.92798-7.17924 7.17924-7.35542 5.76982-7.57563 4.22826-7.88395 2.90693-8.19225 2.90693-9.55761 2.90693-11.2754 4.93297-11.2754 5.32935-11.2754 6.21024-11.2754 7.70777-11.1873 9.29337-10.2183Z" fill="#000000" fill-rule="nonzero" fill-opacity="1" transform="matrix(1.00172 0 0 1 322.683 340.773)"/><path d="M11.6277-6.16621C11.6277-7.09113 11.5837-9.20525 10.5266-10.923 9.3374-12.6407 7.66372-12.949 6.65071-12.949 3.52355-12.949 0.968976-9.95402 0.968976-6.34239 0.968976-2.64266 3.69973 0.30831 7.0471 0.30831 8.80887 0.30831 10.4385-0.352355 11.5396-1.14515L11.3634-2.99502C9.60167-1.49751 7.70777-1.40942 7.09113-1.40942 4.84488-1.40942 3.03905-3.3914 2.95099-6.16621ZM3.0831-7.70777C3.52355-9.8219 5.02106-11.2313 6.65071-11.2313 8.10416-11.2313 9.64573-10.3064 10.0421-7.70777Z" fill="#000000" fill-rule="nonzero" fill-opacity="1" transform="matrix(1.00172 0 0 1 333.466 340.773)"/><path d="M12.2003-19.5117 10.0861-19.5117 10.0861-11.2313C8.58866-12.4646 7.0471-12.7729 5.99003-12.7729 3.21522-12.7729 1.01302-9.86593 1.01302-6.2543 1.01302-2.55457 3.17119 0.30831 5.85788 0.30831 6.78283 0.30831 8.41248 0.0440443 9.99808-1.45346L9.99808 0 12.2003 0ZM9.99808-3.91993C9.99808-3.52355 9.95402-2.99502 9.07314-2.20222 8.41248-1.62964 7.70777-1.40942 7.00307-1.40942 5.24129-1.40942 3.21522-2.73075 3.21522-6.21024 3.21522-9.90996 5.63768-11.0551 7.2673-11.0551 8.5446-11.0551 9.38143-10.4385 9.99808-9.51358Z" fill="#000000" fill-rule="nonzero" fill-opacity="1" transform="matrix(1.00172 0 0 1 345.967 340.773)"/><path d="M4.40443-19.5117 2.29031-19.5117 2.29031 0 4.40443 0Z" fill="#000000" fill-rule="nonzero" fill-opacity="1" transform="matrix(1.00172 0 0 1 252.229 374.473)"/><path d="M11.6277-6.16621C11.6277-7.09113 11.5837-9.20525 10.5266-10.923 9.3374-12.6407 7.66372-12.949 6.65071-12.949 3.52355-12.949 0.968976-9.95402 0.968976-6.34239 0.968976-2.64266 3.69973 0.30831 7.0471 0.30831 8.80887 0.30831 10.4385-0.352355 11.5396-1.14515L11.3634-2.99502C9.60167-1.49751 7.70777-1.40942 7.09113-1.40942 4.84488-1.40942 3.03905-3.3914 2.95099-6.16621ZM3.0831-7.70777C3.52355-9.8219 5.02106-11.2313 6.65071-11.2313 8.10416-11.2313 9.64573-10.3064 10.0421-7.70777Z" fill="#000000" fill-rule="nonzero" fill-opacity="1" transform="matrix(1.00172 0 0 1 258.949 374.473)"/><path d="M11.2313-8.10416C11.2313-10.967 9.16122-12.949 6.56259-12.949 4.75679-12.949 3.47952-12.5086 2.15817-11.7599L2.33435-9.90996C3.78781-10.923 5.19723-11.2754 6.56259-11.2754 7.88395-11.2754 9.02908-10.1743 9.02908-8.10416L9.02908-6.87092C4.80082-6.82689 1.23324-5.63768 1.23324-3.17119 1.23324-1.982 1.982 0.30831 4.44846 0.30831 4.84488 0.30831 7.48754 0.264266 9.11719-1.01302L9.11719 0 11.2313 0ZM9.02908-3.69973C9.02908-3.17119 9.02908-2.46648 8.06013-1.93795 7.2673-1.45346 6.16621-1.40942 5.85788-1.40942 4.53658-1.40942 3.25928-2.07008 3.25928-3.21522 3.25928-5.19723 7.79584-5.37341 9.02908-5.4615Z" fill="#000000" fill-rule="nonzero" fill-opacity="1" transform="matrix(1.00172 0 0 1 271.45 374.473)"/><path d="M4.40443-6.03406C4.40443-8.80887 6.43047-10.8349 9.20525-10.923L9.20525-12.7729C6.69474-12.7729 5.15317-11.3634 4.27229-10.0861L4.27229-12.6407 2.29031-12.6407 2.29031 0 4.40443 0Z" fill="#000000" fill-rule="nonzero" fill-opacity="1" transform="matrix(1.00172 0 0 1 284.185 374.473)"/><path d="M12.2443-8.36843C12.2443-10.2183 11.8039-12.7729 8.36843-12.7729 5.85788-12.7729 4.44846-10.879 4.31635-10.6587L4.31635-12.6407 2.29031-12.6407 2.29031 0 4.44846 0 4.44846-6.87092C4.44846-8.72078 5.15317-11.0551 7.31136-11.0551 9.99808-11.0551 10.0421-9.07314 10.0421-8.19225L10.0421 0 12.2443 0Z" fill="#000000" fill-rule="nonzero" fill-opacity="1" transform="matrix(1.00172 0 0 1 293.796 374.473)"/><path d="M4.58061-19.1152 2.07008-19.1152 2.07008-16.6047 4.58061-16.6047ZM4.40443-12.4646 2.29031-12.4646 2.29031 0 4.40443 0Z" fill="#000000" fill-rule="nonzero" fill-opacity="1" transform="matrix(1.00172 0 0 1 308.33 374.473)"/><path d="M12.2443-8.36843C12.2443-10.2183 11.8039-12.7729 8.36843-12.7729 5.85788-12.7729 4.44846-10.879 4.31635-10.6587L4.31635-12.6407 2.29031-12.6407 2.29031 0 4.44846 0 4.44846-6.87092C4.44846-8.72078 5.15317-11.0551 7.31136-11.0551 9.99808-11.0551 10.0421-9.07314 10.0421-8.19225L10.0421 0 12.2443 0Z" fill="#000000" fill-rule="nonzero" fill-opacity="1" transform="matrix(1.00172 0 0 1 315.05 374.473)"/><path d="M9.90996-10.967C10.5266-10.967 11.2754-11.0992 11.9801-11.0992 12.4646-11.0992 13.5657-11.0111 13.6097-11.0111L13.3014-12.7729C11.3634-12.7729 9.73379-12.2443 8.89696-11.892 8.28034-12.3764 7.35542-12.7729 6.21024-12.7729 3.78781-12.7729 1.76177-10.7468 1.76177-8.19225 1.76177-7.17924 2.11413-6.16621 2.68671-5.41747 1.84986-4.27229 1.84986-3.17119 1.84986-3.03905 1.84986-2.29031 2.11413-1.49751 2.59862-0.880887 1.14515-0.0440443 0.792798 1.27729 0.792798 1.982 0.792798 4.09611 3.56758 5.76982 7.00307 5.76982 10.4385 5.76982 13.2133 4.14017 13.2133 1.982 13.2133-1.93795 8.5446-1.93795 7.44348-1.93795L4.977-1.93795C4.62464-1.93795 3.34737-1.93795 3.34737-3.43546 3.34737-3.74376 3.43546-4.18423 3.65569-4.44846 4.22826-4.00805 5.15317-3.61164 6.21024-3.61164 8.72078-3.61164 10.7028-5.72576 10.7028-8.19225 10.7028-9.55761 10.0861-10.6147 9.77784-11.0111ZM6.21024-5.24129C5.15317-5.24129 3.69973-5.85788 3.69973-8.19225 3.69973-10.5266 5.15317-11.1873 6.21024-11.1873 7.39945-11.1873 8.72078-10.3945 8.72078-8.19225 8.72078-6.03406 7.39945-5.24129 6.21024-5.24129ZM7.48754 0.0880887C8.10416 0.0880887 11.2754 0.0880887 11.2754 2.02604 11.2754 3.25928 9.3374 4.18423 7.0471 4.18423 4.75679 4.18423 2.77479 3.30334 2.77479 1.982 2.77479 1.89391 2.77479 0.0880887 4.93297 0.0880887Z" fill="#000000" fill-rule="nonzero" fill-opacity="1" transform="matrix(1.00172 0 0 1 329.587 374.473)"/><path d="M1562.14 861.08C1596.1 861.08 1623.63 888.61 1623.63 922.57L1623.63 1172.14C1623.63 1206.1 1596.1 1233.63 1562.14 1233.63L1371.68 1233.63C1337.72 1233.63 1310.19 1206.1 1310.19 1172.14L1310.19 922.57C1310.19 888.61 1337.72 861.08 1371.68 861.08Z" stroke="#000000" stroke-width="1.89135" stroke-linecap="butt" stroke-linejoin="miter" stroke-miterlimit="4" stroke-opacity="1" fill="#A0D9D3" fill-rule="nonzero" fill-opacity="1" transform="matrix(1.00172 0 0 1 -518.038 -554.625)"/><path d="M11.7599-9.16122C14.6668-9.99808 16.5607-11.9801 16.5607-14.2704 16.5607-17.0452 13.4776-19.5117 9.46955-19.5117L2.68671-19.5117 2.68671 0 5.10914 0 5.10914-8.89696 9.55761-8.89696 14.8429 0 17.3535 0ZM5.10914-10.6147 5.10914-17.9261 9.16122-17.9261C12.4205-17.9261 14.2704-16.2523 14.2704-14.2704 14.2704-12.2884 12.4646-10.6147 9.16122-10.6147Z" fill="#000000" fill-rule="nonzero" fill-opacity="1" transform="matrix(1.00172 0 0 1 871.703 340.62)"/><path d="M11.6277-6.16621C11.6277-7.09113 11.5837-9.20525 10.5266-10.923 9.3374-12.6407 7.66372-12.949 6.65071-12.949 3.52355-12.949 0.968976-9.95402 0.968976-6.34239 0.968976-2.64266 3.69973 0.30831 7.0471 0.30831 8.80887 0.30831 10.4385-0.352355 11.5396-1.14515L11.3634-2.99502C9.60167-1.49751 7.70777-1.40942 7.09113-1.40942 4.84488-1.40942 3.03905-3.3914 2.95099-6.16621ZM3.0831-7.70777C3.52355-9.8219 5.02106-11.2313 6.65071-11.2313 8.10416-11.2313 9.64573-10.3064 10.0421-7.70777Z" fill="#000000" fill-rule="nonzero" fill-opacity="1" transform="matrix(1.00172 0 0 1 889.871 340.62)"/><path d="M4.58061-19.1152 2.07008-19.1152 2.07008-16.6047 4.58061-16.6047ZM4.40443-12.4646 2.29031-12.4646 2.29031 0 4.40443 0Z" fill="#000000" fill-rule="nonzero" fill-opacity="1" transform="matrix(1.00172 0 0 1 902.371 340.62)"/><path d="M12.2443-8.36843C12.2443-10.2183 11.8039-12.7729 8.36843-12.7729 5.85788-12.7729 4.44846-10.879 4.31635-10.6587L4.31635-12.6407 2.29031-12.6407 2.29031 0 4.44846 0 4.44846-6.87092C4.44846-8.72078 5.15317-11.0551 7.31136-11.0551 9.99808-11.0551 10.0421-9.07314 10.0421-8.19225L10.0421 0 12.2443 0Z" fill="#000000" fill-rule="nonzero" fill-opacity="1" transform="matrix(1.00172 0 0 1 909.092 340.62)"/><path d="M4.93297-10.8349 8.01607-10.8349 8.01607-12.4646 4.84488-12.4646 4.84488-15.8119C4.84488-17.882 6.73877-18.1022 7.48754-18.1022 8.01607-18.1022 8.80887-18.0582 9.73379-17.6177L9.73379-19.5117C9.42549-19.5997 8.5446-19.82 7.48754-19.82 4.84488-19.82 2.81884-17.7939 2.81884-15.0191L2.81884-12.4646 0.748754-12.4646 0.748754-10.8349 2.81884-10.8349 2.81884 0 4.93297 0Z" fill="#000000" fill-rule="nonzero" fill-opacity="1" transform="matrix(1.00172 0 0 1 923.628 340.62)"/><path d="M13.1693-6.16621C13.1693-9.95402 10.3504-12.949 7.0471-12.949 3.56758-12.949 0.836843-9.86593 0.836843-6.16621 0.836843-2.46648 3.69973 0.30831 7.00307 0.30831 10.3504 0.30831 13.1693-2.51053 13.1693-6.16621ZM7.00307-1.49751C5.06511-1.49751 3.03905-3.0831 3.03905-6.47453 3.03905-9.86593 5.15317-11.2313 7.00307-11.2313 8.98505-11.2313 10.967-9.77784 10.967-6.47453 10.967-3.12716 9.07314-1.49751 7.00307-1.49751Z" fill="#000000" fill-rule="nonzero" fill-opacity="1" transform="matrix(1.00172 0 0 1 932.226 340.62)"/><path d="M4.40443-6.03406C4.40443-8.80887 6.43047-10.8349 9.20525-10.923L9.20525-12.7729C6.69474-12.7729 5.15317-11.3634 4.27229-10.0861L4.27229-12.6407 2.29031-12.6407 2.29031 0 4.40443 0Z" fill="#000000" fill-rule="nonzero" fill-opacity="1" transform="matrix(1.00172 0 0 1 945.503 340.62)"/><path d="M11.5396-11.7599C9.86593-12.6848 8.89696-12.949 7.17924-12.949 3.30334-12.949 1.01302-9.55761 1.01302-6.2543 1.01302-2.77479 3.56758 0.30831 7.09113 0.30831 8.58866 0.30831 10.1302-0.0880887 11.6717-1.14515L11.4956-2.99502C10.0421-1.89391 8.5446-1.49751 7.09113-1.49751 4.75679-1.49751 3.21522-3.52355 3.21522-6.2543 3.21522-8.45651 4.22826-11.1432 7.22327-11.1432 8.67672-11.1432 9.64573-10.923 11.1873-9.90996Z" fill="#000000" fill-rule="nonzero" fill-opacity="1" transform="matrix(1.00172 0 0 1 955.115 340.62)"/><path d="M11.6277-6.16621C11.6277-7.09113 11.5837-9.20525 10.5266-10.923 9.3374-12.6407 7.66372-12.949 6.65071-12.949 3.52355-12.949 0.968976-9.95402 0.968976-6.34239 0.968976-2.64266 3.69973 0.30831 7.0471 0.30831 8.80887 0.30831 10.4385-0.352355 11.5396-1.14515L11.3634-2.99502C9.60167-1.49751 7.70777-1.40942 7.09113-1.40942 4.84488-1.40942 3.03905-3.3914 2.95099-6.16621ZM3.0831-7.70777C3.52355-9.8219 5.02106-11.2313 6.65071-11.2313 8.10416-11.2313 9.64573-10.3064 10.0421-7.70777Z" fill="#000000" fill-rule="nonzero" fill-opacity="1" transform="matrix(1.00172 0 0 1 967.616 340.62)"/><path d="M20.0402-8.36843C20.0402-10.2623 19.5997-12.7729 16.1643-12.7729 14.4906-12.7729 13.0371-11.9801 11.9801-10.4826 11.2754-12.5967 9.29337-12.7729 8.41248-12.7729 6.38642-12.7729 5.06511-11.6277 4.31635-10.6147L4.31635-12.6407 2.29031-12.6407 2.29031 0 4.44846 0 4.44846-6.87092C4.44846-8.80887 5.24129-11.0551 7.31136-11.0551 9.90996-11.0551 10.0421-9.24931 10.0421-8.19225L10.0421 0 12.2443 0 12.2443-6.87092C12.2443-8.80887 12.9931-11.0551 15.1072-11.0551 17.7058-11.0551 17.8379-9.24931 17.8379-8.19225L17.8379 0 20.0402 0Z" fill="#000000" fill-rule="nonzero" fill-opacity="1" transform="matrix(1.00172 0 0 1 980.119 340.62)"/><path d="M11.6277-6.16621C11.6277-7.09113 11.5837-9.20525 10.5266-10.923 9.3374-12.6407 7.66372-12.949 6.65071-12.949 3.52355-12.949 0.968976-9.95402 0.968976-6.34239 0.968976-2.64266 3.69973 0.30831 7.0471 0.30831 8.80887 0.30831 10.4385-0.352355 11.5396-1.14515L11.3634-2.99502C9.60167-1.49751 7.70777-1.40942 7.09113-1.40942 4.84488-1.40942 3.03905-3.3914 2.95099-6.16621ZM3.0831-7.70777C3.52355-9.8219 5.02106-11.2313 6.65071-11.2313 8.10416-11.2313 9.64573-10.3064 10.0421-7.70777Z" fill="#000000" fill-rule="nonzero" fill-opacity="1" transform="matrix(1.00172 0 0 1 1002.47 340.62)"/><path d="M12.2443-8.36843C12.2443-10.2183 11.8039-12.7729 8.36843-12.7729 5.85788-12.7729 4.44846-10.879 4.31635-10.6587L4.31635-12.6407 2.29031-12.6407 2.29031 0 4.44846 0 4.44846-6.87092C4.44846-8.72078 5.15317-11.0551 7.31136-11.0551 9.99808-11.0551 10.0421-9.07314 10.0421-8.19225L10.0421 0 12.2443 0Z" fill="#000000" fill-rule="nonzero" fill-opacity="1" transform="matrix(1.00172 0 0 1 1014.97 340.62)"/><path d="M4.93297-10.8349 8.89696-10.8349 8.89696-12.4646 4.93297-12.4646 4.93297-16.0321 2.99502-16.0321 2.99502-12.4646 0.528532-12.4646 0.528532-10.8349 2.90693-10.8349 2.90693-3.34737C2.90693-1.67369 3.30334 0.30831 5.24129 0.30831 7.17924 0.30831 8.63269-0.396399 9.3374-0.748754L8.89696-2.42244C8.14819-1.80582 7.2673-1.49751 6.34239-1.49751 5.32935-1.49751 4.93297-2.33435 4.93297-3.83187Z" fill="#000000" fill-rule="nonzero" fill-opacity="1" transform="matrix(1.00172 0 0 1 1029.5 340.62)"/><path d="M4.40443-19.5117 2.29031-19.5117 2.29031 0 4.40443 0Z" fill="#000000" fill-rule="nonzero" fill-opacity="1" transform="matrix(1.00172 0 0 1 909.976 374.32)"/><path d="M11.6277-6.16621C11.6277-7.09113 11.5837-9.20525 10.5266-10.923 9.3374-12.6407 7.66372-12.949 6.65071-12.949 3.52355-12.949 0.968976-9.95402 0.968976-6.34239 0.968976-2.64266 3.69973 0.30831 7.0471 0.30831 8.80887 0.30831 10.4385-0.352355 11.5396-1.14515L11.3634-2.99502C9.60167-1.49751 7.70777-1.40942 7.09113-1.40942 4.84488-1.40942 3.03905-3.3914 2.95099-6.16621ZM3.0831-7.70777C3.52355-9.8219 5.02106-11.2313 6.65071-11.2313 8.10416-11.2313 9.64573-10.3064 10.0421-7.70777Z" fill="#000000" fill-rule="nonzero" fill-opacity="1" transform="matrix(1.00172 0 0 1 916.696 374.32)"/><path d="M11.2313-8.10416C11.2313-10.967 9.16122-12.949 6.56259-12.949 4.75679-12.949 3.47952-12.5086 2.15817-11.7599L2.33435-9.90996C3.78781-10.923 5.19723-11.2754 6.56259-11.2754 7.88395-11.2754 9.02908-10.1743 9.02908-8.10416L9.02908-6.87092C4.80082-6.82689 1.23324-5.63768 1.23324-3.17119 1.23324-1.982 1.982 0.30831 4.44846 0.30831 4.84488 0.30831 7.48754 0.264266 9.11719-1.01302L9.11719 0 11.2313 0ZM9.02908-3.69973C9.02908-3.17119 9.02908-2.46648 8.06013-1.93795 7.2673-1.45346 6.16621-1.40942 5.85788-1.40942 4.53658-1.40942 3.25928-2.07008 3.25928-3.21522 3.25928-5.19723 7.79584-5.37341 9.02908-5.4615Z" fill="#000000" fill-rule="nonzero" fill-opacity="1" transform="matrix(1.00172 0 0 1 929.196 374.32)"/><path d="M4.40443-6.03406C4.40443-8.80887 6.43047-10.8349 9.20525-10.923L9.20525-12.7729C6.69474-12.7729 5.15317-11.3634 4.27229-10.0861L4.27229-12.6407 2.29031-12.6407 2.29031 0 4.40443 0Z" fill="#000000" fill-rule="nonzero" fill-opacity="1" transform="matrix(1.00172 0 0 1 941.931 374.32)"/><path d="M12.2443-8.36843C12.2443-10.2183 11.8039-12.7729 8.36843-12.7729 5.85788-12.7729 4.44846-10.879 4.31635-10.6587L4.31635-12.6407 2.29031-12.6407 2.29031 0 4.44846 0 4.44846-6.87092C4.44846-8.72078 5.15317-11.0551 7.31136-11.0551 9.99808-11.0551 10.0421-9.07314 10.0421-8.19225L10.0421 0 12.2443 0Z" fill="#000000" fill-rule="nonzero" fill-opacity="1" transform="matrix(1.00172 0 0 1 951.543 374.32)"/><path d="M4.58061-19.1152 2.07008-19.1152 2.07008-16.6047 4.58061-16.6047ZM4.40443-12.4646 2.29031-12.4646 2.29031 0 4.40443 0Z" fill="#000000" fill-rule="nonzero" fill-opacity="1" transform="matrix(1.00172 0 0 1 966.077 374.32)"/><path d="M12.2443-8.36843C12.2443-10.2183 11.8039-12.7729 8.36843-12.7729 5.85788-12.7729 4.44846-10.879 4.31635-10.6587L4.31635-12.6407 2.29031-12.6407 2.29031 0 4.44846 0 4.44846-6.87092C4.44846-8.72078 5.15317-11.0551 7.31136-11.0551 9.99808-11.0551 10.0421-9.07314 10.0421-8.19225L10.0421 0 12.2443 0Z" fill="#000000" fill-rule="nonzero" fill-opacity="1" transform="matrix(1.00172 0 0 1 972.797 374.32)"/><path d="M9.90996-10.967C10.5266-10.967 11.2754-11.0992 11.9801-11.0992 12.4646-11.0992 13.5657-11.0111 13.6097-11.0111L13.3014-12.7729C11.3634-12.7729 9.73379-12.2443 8.89696-11.892 8.28034-12.3764 7.35542-12.7729 6.21024-12.7729 3.78781-12.7729 1.76177-10.7468 1.76177-8.19225 1.76177-7.17924 2.11413-6.16621 2.68671-5.41747 1.84986-4.27229 1.84986-3.17119 1.84986-3.03905 1.84986-2.29031 2.11413-1.49751 2.59862-0.880887 1.14515-0.0440443 0.792798 1.27729 0.792798 1.982 0.792798 4.09611 3.56758 5.76982 7.00307 5.76982 10.4385 5.76982 13.2133 4.14017 13.2133 1.982 13.2133-1.93795 8.5446-1.93795 7.44348-1.93795L4.977-1.93795C4.62464-1.93795 3.34737-1.93795 3.34737-3.43546 3.34737-3.74376 3.43546-4.18423 3.65569-4.44846 4.22826-4.00805 5.15317-3.61164 6.21024-3.61164 8.72078-3.61164 10.7028-5.72576 10.7028-8.19225 10.7028-9.55761 10.0861-10.6147 9.77784-11.0111ZM6.21024-5.24129C5.15317-5.24129 3.69973-5.85788 3.69973-8.19225 3.69973-10.5266 5.15317-11.1873 6.21024-11.1873 7.39945-11.1873 8.72078-10.3945 8.72078-8.19225 8.72078-6.03406 7.39945-5.24129 6.21024-5.24129ZM7.48754 0.0880887C8.10416 0.0880887 11.2754 0.0880887 11.2754 2.02604 11.2754 3.25928 9.3374 4.18423 7.0471 4.18423 4.75679 4.18423 2.77479 3.30334 2.77479 1.982 2.77479 1.89391 2.77479 0.0880887 4.93297 0.0880887Z" fill="#000000" fill-rule="nonzero" fill-opacity="1" transform="matrix(1.00172 0 0 1 987.333 374.32)"/><path d="M1568.43 1033.58C1591.74 1033.58 1610.63 1052.47 1610.63 1075.78L1610.63 1172.01C1610.63 1195.32 1591.74 1214.21 1568.43 1214.21L712.533 1214.21C689.225 1214.21 670.329 1195.32 670.329 1172.01L670.329 1075.78C670.329 1052.47 689.225 1033.58 712.533 1033.58Z" stroke="#000000" stroke-width="1.89135" stroke-linecap="butt" stroke-linejoin="miter" stroke-miterlimit="4" stroke-opacity="1" fill="#AEC3CF" fill-rule="nonzero" fill-opacity="0.510121" transform="matrix(1.00172 0 0 1 -518.038 -554.625)"/><path d="M2.68671-19.5117 2.68671 0 10.0861 0C14.887 0 18.6748-4.27229 18.6748-9.60167 18.6748-15.0191 14.887-19.5117 10.0421-19.5117ZM5.10914-1.5856 5.10914-17.9261 9.42549-17.9261C13.3455-17.9261 16.2523-14.5346 16.2523-9.60167 16.2523-4.80082 13.3455-1.5856 9.42549-1.5856Z" fill="#000000" fill-rule="nonzero" fill-opacity="1" transform="matrix(1.00172 0 0 1 542.942 508.38)"/><path d="M11.6277-6.16621C11.6277-7.09113 11.5837-9.20525 10.5266-10.923 9.3374-12.6407 7.66372-12.949 6.65071-12.949 3.52355-12.949 0.968976-9.95402 0.968976-6.34239 0.968976-2.64266 3.69973 0.30831 7.0471 0.30831 8.80887 0.30831 10.4385-0.352355 11.5396-1.14515L11.3634-2.99502C9.60167-1.49751 7.70777-1.40942 7.09113-1.40942 4.84488-1.40942 3.03905-3.3914 2.95099-6.16621ZM3.0831-7.70777C3.52355-9.8219 5.02106-11.2313 6.65071-11.2313 8.10416-11.2313 9.64573-10.3064 10.0421-7.70777Z" fill="#000000" fill-rule="nonzero" fill-opacity="1" transform="matrix(1.00172 0 0 1 563.258 508.38)"/><path d="M11.6277-6.16621C11.6277-7.09113 11.5837-9.20525 10.5266-10.923 9.3374-12.6407 7.66372-12.949 6.65071-12.949 3.52355-12.949 0.968976-9.95402 0.968976-6.34239 0.968976-2.64266 3.69973 0.30831 7.0471 0.30831 8.80887 0.30831 10.4385-0.352355 11.5396-1.14515L11.3634-2.99502C9.60167-1.49751 7.70777-1.40942 7.09113-1.40942 4.84488-1.40942 3.03905-3.3914 2.95099-6.16621ZM3.0831-7.70777C3.52355-9.8219 5.02106-11.2313 6.65071-11.2313 8.10416-11.2313 9.64573-10.3064 10.0421-7.70777Z" fill="#000000" fill-rule="nonzero" fill-opacity="1" transform="matrix(1.00172 0 0 1 575.759 508.38)"/><path d="M4.49252-1.27729C5.37341-0.484488 6.60665 0.30831 8.28034 0.30831 11.0111 0.30831 13.4776-2.46648 13.4776-6.2543 13.4776-9.64573 11.7158-12.7729 9.02908-12.7729 7.35542-12.7729 5.72576-12.2003 4.40443-11.0992L4.40443-12.4646 2.29031-12.4646 2.29031 5.4615 4.49252 5.4615ZM4.49252-9.3374C5.15317-10.3504 6.2543-10.967 7.48754-10.967 9.60167-10.967 11.2754-8.8529 11.2754-6.2543 11.2754-3.3914 9.29337-1.40942 7.17924-1.40942 6.07812-1.40942 5.32935-1.982 4.75679-2.73075 4.49252-3.12716 4.49252-3.21522 4.49252-3.69973Z" fill="#000000" fill-rule="nonzero" fill-opacity="1" transform="matrix(1.00172 0 0 1 588.262 508.38)"/><path d="M4.40443-19.5117 2.29031-19.5117 2.29031 0 4.40443 0Z" fill="#000000" fill-rule="nonzero" fill-opacity="1" transform="matrix(1.00172 0 0 1 612.164 508.38)"/><path d="M11.6277-6.16621C11.6277-7.09113 11.5837-9.20525 10.5266-10.923 9.3374-12.6407 7.66372-12.949 6.65071-12.949 3.52355-12.949 0.968976-9.95402 0.968976-6.34239 0.968976-2.64266 3.69973 0.30831 7.0471 0.30831 8.80887 0.30831 10.4385-0.352355 11.5396-1.14515L11.3634-2.99502C9.60167-1.49751 7.70777-1.40942 7.09113-1.40942 4.84488-1.40942 3.03905-3.3914 2.95099-6.16621ZM3.0831-7.70777C3.52355-9.8219 5.02106-11.2313 6.65071-11.2313 8.10416-11.2313 9.64573-10.3064 10.0421-7.70777Z" fill="#000000" fill-rule="nonzero" fill-opacity="1" transform="matrix(1.00172 0 0 1 618.885 508.38)"/><path d="M11.2313-8.10416C11.2313-10.967 9.16122-12.949 6.56259-12.949 4.75679-12.949 3.47952-12.5086 2.15817-11.7599L2.33435-9.90996C3.78781-10.923 5.19723-11.2754 6.56259-11.2754 7.88395-11.2754 9.02908-10.1743 9.02908-8.10416L9.02908-6.87092C4.80082-6.82689 1.23324-5.63768 1.23324-3.17119 1.23324-1.982 1.982 0.30831 4.44846 0.30831 4.84488 0.30831 7.48754 0.264266 9.11719-1.01302L9.11719 0 11.2313 0ZM9.02908-3.69973C9.02908-3.17119 9.02908-2.46648 8.06013-1.93795 7.2673-1.45346 6.16621-1.40942 5.85788-1.40942 4.53658-1.40942 3.25928-2.07008 3.25928-3.21522 3.25928-5.19723 7.79584-5.37341 9.02908-5.4615Z" fill="#000000" fill-rule="nonzero" fill-opacity="1" transform="matrix(1.00172 0 0 1 631.385 508.38)"/><path d="M4.40443-6.03406C4.40443-8.80887 6.43047-10.8349 9.20525-10.923L9.20525-12.7729C6.69474-12.7729 5.15317-11.3634 4.27229-10.0861L4.27229-12.6407 2.29031-12.6407 2.29031 0 4.40443 0Z" fill="#000000" fill-rule="nonzero" fill-opacity="1" transform="matrix(1.00172 0 0 1 644.146 508.38)"/><path d="M12.2443-8.36843C12.2443-10.2183 11.8039-12.7729 8.36843-12.7729 5.85788-12.7729 4.44846-10.879 4.31635-10.6587L4.31635-12.6407 2.29031-12.6407 2.29031 0 4.44846 0 4.44846-6.87092C4.44846-8.72078 5.15317-11.0551 7.31136-11.0551 9.99808-11.0551 10.0421-9.07314 10.0421-8.19225L10.0421 0 12.2443 0Z" fill="#000000" fill-rule="nonzero" fill-opacity="1" transform="matrix(1.00172 0 0 1 653.76 508.38)"/><path d="M4.58061-19.1152 2.07008-19.1152 2.07008-16.6047 4.58061-16.6047ZM4.40443-12.4646 2.29031-12.4646 2.29031 0 4.40443 0Z" fill="#000000" fill-rule="nonzero" fill-opacity="1" transform="matrix(1.00172 0 0 1 668.294 508.38)"/><path d="M12.2443-8.36843C12.2443-10.2183 11.8039-12.7729 8.36843-12.7729 5.85788-12.7729 4.44846-10.879 4.31635-10.6587L4.31635-12.6407 2.29031-12.6407 2.29031 0 4.44846 0 4.44846-6.87092C4.44846-8.72078 5.15317-11.0551 7.31136-11.0551 9.99808-11.0551 10.0421-9.07314 10.0421-8.19225L10.0421 0 12.2443 0Z" fill="#000000" fill-rule="nonzero" fill-opacity="1" transform="matrix(1.00172 0 0 1 675.014 508.38)"/><path d="M9.90996-10.967C10.5266-10.967 11.2754-11.0992 11.9801-11.0992 12.4646-11.0992 13.5657-11.0111 13.6097-11.0111L13.3014-12.7729C11.3634-12.7729 9.73379-12.2443 8.89696-11.892 8.28034-12.3764 7.35542-12.7729 6.21024-12.7729 3.78781-12.7729 1.76177-10.7468 1.76177-8.19225 1.76177-7.17924 2.11413-6.16621 2.68671-5.41747 1.84986-4.27229 1.84986-3.17119 1.84986-3.03905 1.84986-2.29031 2.11413-1.49751 2.59862-0.880887 1.14515-0.0440443 0.792798 1.27729 0.792798 1.982 0.792798 4.09611 3.56758 5.76982 7.00307 5.76982 10.4385 5.76982 13.2133 4.14017 13.2133 1.982 13.2133-1.93795 8.5446-1.93795 7.44348-1.93795L4.977-1.93795C4.62464-1.93795 3.34737-1.93795 3.34737-3.43546 3.34737-3.74376 3.43546-4.18423 3.65569-4.44846 4.22826-4.00805 5.15317-3.61164 6.21024-3.61164 8.72078-3.61164 10.7028-5.72576 10.7028-8.19225 10.7028-9.55761 10.0861-10.6147 9.77784-11.0111ZM6.21024-5.24129C5.15317-5.24129 3.69973-5.85788 3.69973-8.19225 3.69973-10.5266 5.15317-11.1873 6.21024-11.1873 7.39945-11.1873 8.72078-10.3945 8.72078-8.19225 8.72078-6.03406 7.39945-5.24129 6.21024-5.24129ZM7.48754 0.0880887C8.10416 0.0880887 11.2754 0.0880887 11.2754 2.02604 11.2754 3.25928 9.3374 4.18423 7.0471 4.18423 4.75679 4.18423 2.77479 3.30334 2.77479 1.982 2.77479 1.89391 2.77479 0.0880887 4.93297 0.0880887Z" fill="#000000" fill-rule="nonzero" fill-opacity="1" transform="matrix(1.00172 0 0 1 689.551 508.38)"/></g></g></g></g></g></svg>